<svg width="53" height="32" viewBox="0 0 53 32" fill="none" xmlns="http://www.w3.org/2000/svg">
<path d="M22.2032 7.05166e-06C17.1239 -0.00584398 12.621 3.62999 11.7024 8.80171L11.3729 10.6688L5.95781 10.667L5.01755 15.9997H10.4321L9.32859 22.2568C8.87221 24.8458 6.61897 26.6673 4.0767 26.6643L2.66602 26.6673V31.9999L4.0767 31.9981C9.16008 32.004 13.6671 28.3617 14.5799 23.183L15.8466 16.002L21.2618 16.0002L22.202 10.6676H16.7869L16.9501 9.74139C17.4065 7.15231 19.6598 5.33088 22.202 5.33381L23.1423 5.33498L24.0837 0.00176236L22.2032 7.05166e-06Z" fill="#00A287"/>
<path d="M43.8339 10.8293C38.0332 9.80656 32.5016 13.6799 31.4782 19.4807C30.4555 25.2814 34.3289 30.8129 40.1296 31.8363C45.9303 32.8596 51.4619 28.9857 52.4852 23.1849C53.508 17.3842 49.6346 11.8521 43.8339 10.8293ZM47.2333 22.2587C46.7219 25.1591 43.9562 27.0958 41.0558 26.5844C38.1554 26.073 36.2187 23.3072 36.7301 20.4069C37.2415 17.5065 40.0073 15.5698 42.9076 16.0812C45.8086 16.5926 47.7447 19.3584 47.2333 22.2587Z" fill="#00A287"/>
<path d="M26.5636 31.9983L32.2051 0.00195312H26.79L21.1484 31.9983H26.5636Z" fill="#00A287"/>
<path d="M11.3725 10.6694H16.787L15.8468 16.0021H10.4316L11.3725 10.6694Z" fill="#003372"/>
<path d="M26.7899 0.00341797H32.205L31.2647 5.33605H25.8496L26.7899 0.00341797Z" fill="#003372"/>
<path d="M23.0301 21.334H28.4452L27.505 26.6666H22.0898L23.0301 21.334Z" fill="#003372"/>
<path d="M2.66632 31.9996C4.13888 31.9996 5.33263 30.8059 5.33263 29.3333C5.33263 27.8607 4.13888 26.667 2.66632 26.667C1.19375 26.667 0 27.8607 0 29.3333C0 30.8059 1.19375 31.9996 2.66632 31.9996Z" fill="#003372"/>
<path d="M49.9827 23.9986C51.4553 23.9986 52.649 22.8049 52.649 21.3323C52.649 19.8598 51.4553 18.666 49.9827 18.666C48.5102 18.666 47.3164 19.8598 47.3164 21.3323C47.3164 22.8049 48.5102 23.9986 49.9827 23.9986Z" fill="#003372"/>
</svg>
