<svg width="166" height="44" viewBox="0 0 166 44" fill="none" xmlns="http://www.w3.org/2000/svg">
<path d="M30.0145 0.0429792C23.15 0.0346788 17.0575 4.94853 15.8208 11.9458L15.3725 14.4691H8.05156L6.7816 21.6822H14.1026L12.6085 30.1403C11.9943 33.6431 8.94801 36.1 5.51164 36.1H3.60254V43.3131H5.51164C12.3844 43.3214 18.4769 38.3992 19.7137 31.3937L21.4235 21.6822H28.7445L30.0145 14.4691H22.6935L22.9176 13.2157C23.5318 9.71297 26.5781 7.25604 30.0145 7.25604H31.2844L32.5627 0.0429792H30.0145Z" fill="#00A287"/>
<path d="M59.2651 14.6853C51.4212 13.2991 43.9426 18.5367 42.5564 26.3806C41.1702 34.2245 46.4078 41.7032 54.2517 43.0893C62.0956 44.4755 69.5743 39.2379 70.9604 31.394C72.3466 23.5501 67.109 16.0715 59.2651 14.6853ZM63.8636 30.1407C63.1746 34.0585 59.4311 36.6814 55.5133 35.9925C51.5955 35.3035 48.9726 31.56 49.6615 27.6423C50.3505 23.7245 54.094 21.1015 58.0118 21.7905C61.9296 22.4794 64.5525 26.2146 63.8636 30.1407Z" fill="#00A287"/>
<path d="M35.9157 43.3048L43.5438 0.0429688H36.2228L28.5947 43.3048H35.9157Z" fill="#00A287"/>
<path d="M87.769 27.8591L99.8544 42.692H91.9109L81.1701 29.2619V42.692H74.7871V0.0527344H81.1701V26.4149L91.9109 14.4955H99.9125L87.769 27.8591Z" fill="#DE2857"/>
<path d="M104.909 0.771484C107.374 0.771484 109.109 2.62248 109.109 4.9715C109.109 7.32052 107.374 9.17151 104.909 9.17151C102.444 9.17151 100.709 7.32052 100.709 4.9715C100.709 2.62248 102.444 0.771484 104.909 0.771484ZM108.096 42.6886H101.713V14.4838H108.096V42.6886Z" fill="#DE2857"/>
<path d="M140.634 0.0527344V42.7003H134.31V40.1853C132.127 42.1442 129.163 43.3228 125.744 43.3228C117.518 43.3228 111.699 36.8319 111.699 28.6643C111.699 20.3224 117.518 13.8895 125.744 13.8895C129.105 13.8895 132.068 15.0682 134.251 16.969V0.0527344H140.634ZM134.476 28.6477C134.476 23.7255 131.114 20.0817 126.25 20.0817C121.436 20.0817 118.082 23.7172 118.082 28.6477C118.082 33.4619 121.444 37.0975 126.25 37.0975C131.122 37.0975 134.476 33.4619 134.476 28.6477Z" fill="#DE2857"/>
<path d="M154.986 37.2036C157.899 37.2036 159.634 35.917 159.634 34.066C159.634 32.7795 158.68 31.9992 157.119 31.717C155.442 31.3269 153.542 31.2688 151.466 30.9368C146.428 30.0984 144.245 26.9111 144.245 23.1012C144.245 17.8387 148.553 13.8711 154.878 13.8711C161.087 13.8711 165.619 17.6229 165.619 22.9933H159.236C159.236 21.0925 157.443 19.9138 154.87 19.9138C152.238 19.9138 150.62 21.2004 150.62 22.8771C150.62 24.0557 151.4 24.7778 152.911 25.1182C154.762 25.5083 156.38 25.5083 158.729 25.8486C163.602 26.579 166.001 29.8245 166.001 33.7921C166.001 39.2206 161.576 43.3044 154.978 43.3044C148.595 43.3044 143.896 39.4447 143.896 33.8502H150.28C150.28 35.9751 152.189 37.2036 154.986 37.2036Z" fill="#DE2857"/>
<path d="M15.3735 14.4688H22.6945L21.4245 21.6735H14.1035L15.3735 14.4688Z" fill="#003472"/>
<path d="M31.1352 28.8848H38.4562L37.1862 36.0978H29.8652L31.1352 28.8848Z" fill="#003472"/>
<path d="M35.0131 7.25586H42.3341L41.0641 14.4689H33.7432L35.0131 7.25586Z" fill="#003472"/>
<path d="M3.60238 43.3024C5.59192 43.3024 7.20477 41.6896 7.20477 39.7C7.20477 37.7105 5.59192 36.0977 3.60238 36.0977C1.61284 36.0977 0 37.7105 0 39.7C0 41.6896 1.61284 43.3024 3.60238 43.3024Z" fill="#003472"/>
<path d="M67.5741 32.4919C69.5636 32.4919 71.1764 30.879 71.1764 28.8895C71.1764 26.9 69.5636 25.2871 67.5741 25.2871C65.5845 25.2871 63.9717 26.9 63.9717 28.8895C63.9717 30.879 65.5845 32.4919 67.5741 32.4919Z" fill="#003472"/>
</svg>
